<?xml version="1.0" encoding="utf-8"?>
<!-- Generator: Adobe Illustrator 16.0.0, SVG Export Plug-In . SVG Version: 6.00 Build 0)  -->
<!DOCTYPE svg PUBLIC "-//W3C//DTD SVG 1.0//EN" "http://www.w3.org/TR/2001/REC-SVG-20010904/DTD/svg10.dtd">
<svg version="1.0" id="Layer_1" xmlns="http://www.w3.org/2000/svg" xmlns:xlink="http://www.w3.org/1999/xlink" x="0px" y="0px"
	 width="250px" height="250px" viewBox="0 0 100 100" enable-background="new 0 0 100 100" xml:space="preserve">
<path fill="#9e9e9e4d" d="M84.34,30h-1.006V20c0-1.833-1.501-3.333-3.334-3.333H50L43.333,10H19.999c-1.833,0-3.333,1.5-3.333,3.333
	V30H15.66c-3.666,0-6.172,2.958-5.57,6.576L18.993,90h62.013l8.904-53.424C90.516,32.958,88.008,30,84.34,30z M23.332,16.667h17.241
	l6.666,6.667h29.428V30H23.332V16.667z M75.358,83.333H24.64l-7.776-46.667h66.275L75.358,83.333z"/>
<path fill="#00ba8b4d" d="M63.131,62.063c-3.619,3.621-8.375,5.431-13.131,5.431c-4.756,0-9.513-1.81-13.132-5.431l-3.535,3.535
	c9.2,9.199,24.126,9.207,33.333,0L63.131,62.063z"/>
<path fill="#00ba8b4d" d="M44.167,51.666c0,2.299-1.865,4.167-4.167,4.167c-2.302,0-4.167-1.868-4.167-4.167
	c0-2.305,1.865-4.166,4.167-4.166C42.302,47.5,44.167,49.361,44.167,51.666z"/>
<path fill="#00ba8b4d" d="M64.166,51.666c0,2.299-1.865,4.167-4.166,4.167c-2.303,0-4.168-1.868-4.168-4.167
	c0-2.305,1.865-4.166,4.168-4.166C62.301,47.5,64.166,49.361,64.166,51.666z"/>
</svg>
